<?xml version="1.0" encoding="utf-8"?>
<svg xmlns="http://www.w3.org/2000/svg" viewBox="0 0 30 30" width="360" height="360">
  <path fill="#f78f8f" d="M5.497 27.496L5.497 2.496 18.79 2.496 24.497 8.203 24.497 27.496z" />
  <path fill="#c74343" d="M18.583,2.996l5.414,5.414v18.586h-18v-24H18.583 M18.998,1.996h-14v26h20v-20L18.998,1.996 L18.998,1.996z" />
  <path fill="#fff" d="M18.497 8.496L18.497 2.496 18.79 2.496 24.497 8.203 24.497 8.496z" />
  <path fill="#c74343" d="M18.997,3.41l4.586,4.586h-4.586V3.41 M18.998,1.996h-1v7h7v-1L18.998,1.996L18.998,1.996z" />
  <path fill="#fff" d="M12.068 16.466h-1.529v1.819h1.729v1.139H9.229v-6.736h2.929v1.139h-1.619v1.549h1.529V16.466zM15.588 19.425l-.42-1.239c-.13-.39-.25-.77-.36-1.199h-.03c-.11.43-.21.839-.31 1.219l-.359 1.219H12.81l1.259-3.448-1.209-3.288h1.359l.399 1.25c.1.35.2.699.3 1.079h.02c.11-.41.2-.729.29-1.099l.34-1.229h1.309l-1.259 3.348 1.33 3.388H15.588zM20.578 16.466h-1.529v1.819h1.729v1.139h-3.039v-6.736h2.929v1.139h-1.619v1.549h1.529V16.466z" />
</svg>